<svg width="600" height="152" viewBox="0 0 600 152" fill="none" xmlns="http://www.w3.org/2000/svg">
<path d="M210.06 123L194.78 63.8H210.14L218.22 102.28L226.94 63.8H238.54L247.26 102.44L255.34 63.8H270.62L254.94 123H241.66L232.62 84.68L223.74 123H210.06ZM312.711 105.4H279.671C280.231 110.12 284.711 113.24 289.911 113.24C294.151 113.24 296.391 111.4 297.991 109.08H311.591C309.431 114.04 306.311 117.88 302.551 120.44C298.871 123.08 294.471 124.44 289.911 124.44C277.191 124.44 266.391 114.12 266.391 100.92C266.391 88.52 276.151 77.08 289.671 77.08C296.471 77.08 302.311 79.72 306.471 84.12C312.071 90.12 313.751 97.24 312.711 105.4ZM279.831 95.32H299.671C299.351 93.24 296.631 88.28 289.751 88.28C282.871 88.28 280.151 93.24 279.831 95.32ZM318.109 123V63.8H331.389V78.76V82.12C336.109 77.08 342.429 77.08 344.269 77.08C353.549 77.08 366.109 83.72 366.109 100.52C366.109 116.52 354.989 124.52 343.709 124.52C337.469 124.52 332.669 121.48 330.829 118.28V123H318.109ZM352.829 100.76V100.68C352.829 95 348.509 89.48 341.949 89.48C334.909 89.48 330.909 95.16 330.909 100.68C330.909 106.84 335.069 112.12 341.709 112.12C348.509 112.12 352.829 106.6 352.829 100.76ZM371.738 123V63.8H405.258V77.08H386.858V86.28H404.698V99.56H386.858V109.72H405.258V123H371.738ZM457.684 78.6V123H444.404V118.2C442.004 122.52 436.484 124.52 431.284 124.52C417.204 124.52 408.964 113.48 408.964 100.76C408.964 86.2 419.444 77.08 431.284 77.08C438.564 77.08 442.644 80.6 444.404 83.32V78.6H457.684ZM422.244 100.92V101C422.244 105.08 425.284 112.12 433.284 112.12C438.004 112.12 440.884 109.88 442.564 107.16C443.684 105.4 444.244 103.48 444.404 101.48C444.564 99.48 444.164 97.48 443.284 95.64C441.844 92.6 438.804 89.48 433.204 89.48C425.604 89.48 422.244 95.88 422.244 100.92ZM496.892 91.08H483.852C483.772 90.12 483.612 87.72 479.692 87.72C476.892 87.72 475.932 89.48 475.932 90.68C475.932 92.68 479.212 94.04 482.732 95.08C490.252 97.16 498.252 99.4 498.252 109C498.252 118.76 490.012 124.52 480.172 124.52C473.452 124.52 463.292 121.48 462.092 109.8H475.292C475.852 113.88 479.772 113.88 480.332 113.88C482.572 113.88 484.972 112.6 484.972 110.44C484.972 107.4 481.692 107 473.212 103.72C467.452 101.88 462.652 98.12 462.652 92.12C462.652 82.92 470.652 77.08 479.852 77.08C485.692 77.08 495.772 79.4 496.892 91.08ZM507.214 137.8L514.254 120.76L497.774 78.6H511.934L520.974 104.36L529.454 78.6H543.534L521.294 137.8H507.214Z" fill="black"/>
<rect x="550.5" y="47" width="49" height="34" rx="17" fill="#20CB4C"/>
<path d="M565.868 69H562.062V65.26H565.868V69ZM581.564 69H577.912V67.68H577.868C577.34 68.758 575.888 69.418 574.282 69.418C570.674 69.418 568.166 66.58 568.166 62.884C568.166 59.276 570.784 56.372 574.282 56.372C575.778 56.372 577.164 56.966 577.868 58.088H577.912V56.79H581.564V69ZM574.854 66.008C576.57 66.008 577.912 64.644 577.912 62.884C577.912 61.168 576.526 59.782 574.81 59.782C573.138 59.782 571.818 61.168 571.818 62.928C571.818 64.622 573.16 66.008 574.854 66.008ZM587.88 55.492H584.228V52.72H587.88V55.492ZM587.88 69H584.228V56.79H587.88V69Z" fill="white"/>
<path d="M112.5 8C112.5 3.58172 116.082 0 120.5 0H146.5C150.918 0 154.5 3.58172 154.5 8V139.3C154.5 141.492 152.225 142.944 150.237 142.021L117.131 126.65C114.307 125.339 112.5 122.508 112.5 119.394V8Z" fill="#6651F5"/>
<path d="M112.5 8C112.5 3.58172 116.082 0 120.5 0H146.5C150.918 0 154.5 3.58172 154.5 8V139.3C154.5 141.492 152.225 142.944 150.237 142.021L117.131 126.65C114.307 125.339 112.5 122.508 112.5 119.394V8Z" fill="url(#paint0_linear_38_1168)" style="mix-blend-mode:overlay"/>
<path d="M5.36267 39.057C2.99446 35.0573 5.87735 30 10.5255 30H38.5797C40.6998 30 42.6624 31.1188 43.7426 32.943L104.137 134.943C106.506 138.943 103.623 144 98.9745 144H70.9203C68.8002 144 66.8375 142.881 65.7574 141.057L5.36267 39.057Z" fill="#6651F5"/>
<path d="M54.8627 39.057C52.4945 35.0573 55.3773 30 60.0255 30H88.0797C90.1998 30 92.1625 31.1188 93.2426 32.943L153.637 134.943C156.006 138.943 153.123 144 148.474 144H120.42C118.3 144 116.338 142.881 115.257 141.057L54.8627 39.057Z" fill="#6651F5"/>
<defs>
<linearGradient id="paint0_linear_38_1168" x1="134.25" y1="0" x2="134.25" y2="144" gradientUnits="userSpaceOnUse">
<stop stop-color="#747474" stop-opacity="0"/>
<stop offset="1" stop-color="#E0E0E0"/>
</linearGradient>
</defs>
</svg>
